<svg width="10" height="14" viewBox="0 0 10 14" fill="none" xmlns="http://www.w3.org/2000/svg">
<path d="M2.52259 0.65574C4.0832 -0.232908 6.00145 -0.217376 7.54742 0.696426C9.07819 1.62884 10.0085 3.29292 9.99994 5.08301C9.96425 6.86136 8.96664 8.533 7.71962 9.82526C6.99988 10.5745 6.19472 11.237 5.3206 11.7992C5.23058 11.8502 5.13196 11.8844 5.02963 11.9C4.93114 11.8959 4.83523 11.8674 4.75054 11.817C3.41602 10.9722 2.24524 9.89383 1.29452 8.63377C0.498991 7.58196 0.0470247 6.31121 0 4.99409L0.00356159 4.80248C0.0685158 3.08325 1.01771 1.51265 2.52259 0.65574ZM5.64805 3.52434C5.01362 3.26006 4.28217 3.40365 3.79523 3.88804C3.30828 4.37244 3.16189 5.10211 3.4244 5.73635C3.68692 6.37059 4.30656 6.78429 4.994 6.78429C5.44436 6.78746 5.87728 6.61068 6.19629 6.29333C6.51531 5.97599 6.69392 5.54445 6.69233 5.09487C6.69472 4.40863 6.28247 3.78862 5.64805 3.52434Z" fill="#F89117"/>
<path opacity="0.4" d="M4.99916 14.0001C6.97161 14.0001 8.57059 13.6867 8.57059 13.3001C8.57059 12.9135 6.97161 12.6001 4.99916 12.6001C3.02672 12.6001 1.42773 12.9135 1.42773 13.3001C1.42773 13.6867 3.02672 14.0001 4.99916 14.0001Z" fill="#F89117"/>
</svg>
