<svg width="67" height="51" viewBox="0 0 67 51" fill="none" xmlns="http://www.w3.org/2000/svg">
<g opacity="0.3">
<path d="M64.541 19.4723C64.2919 21.2296 64.1229 23.003 63.7777 24.741C62.909 29.1137 61.0854 33.0775 58.4789 36.6703C54.6316 41.9736 49.5913 45.8662 43.9672 49.0545C42.7954 49.7186 41.5959 50.3333 40.355 51C38.5632 47.6634 36.8053 44.3896 35.0711 41.1601C37.0041 40.0518 38.9225 39.0539 40.7344 37.888C43.1758 36.3171 45.4141 34.4727 46.8277 31.8501C47.4008 30.7865 47.7518 29.601 48.2148 28.4432C47.0266 28.0595 45.9996 27.7851 45.0152 27.4001C39.75 25.341 35.379 19.8411 35.7586 13.0904C36.0743 7.47647 39.5655 2.49936 44.8188 0.798473C49.5144 -0.721764 53.932 0.093708 57.8272 3.17972C61.3252 5.95095 63.4271 9.61866 64.2417 14.0302C64.3568 14.6535 64.442 15.2824 64.541 15.9088C64.541 17.0966 64.541 18.2844 64.541 19.4723ZM41.4832 47.2305C41.6338 47.1568 41.7297 47.1145 41.8213 47.0642C44.719 45.476 47.4875 43.6888 50.0378 41.574C53.1603 38.9846 55.864 36.0228 57.9058 32.4793C60.4725 28.025 61.6618 23.1972 61.7631 18.0724C61.8536 13.5012 60.4711 9.50384 57.1647 6.29162C53.8843 3.10448 49.9909 2.06317 45.6593 3.4605C40.2693 5.19917 37.0692 11.3684 39.0919 17.4695C40.5963 22.0071 43.9539 24.628 48.6001 25.5504C49.3597 25.7012 50.1322 25.7861 50.8889 25.9C51.1666 30.0667 49.6649 33.4799 46.9094 36.4019C45.0153 38.4106 42.8152 40.0165 40.4224 41.365C39.8974 41.6608 39.3812 41.9723 38.8308 42.2941C39.7333 43.9741 40.6005 45.5879 41.4832 47.2305Z" fill="#F89117"/>
<path d="M5.16294 50.9375C3.44373 47.6529 1.73812 44.3943 0.00136757 41.0762C0.344423 40.9021 0.648304 40.747 0.952841 40.5934C3.98445 39.0645 6.90001 37.3593 9.33795 34.937C11.1645 33.1221 12.5082 31.0358 12.9126 28.3453C12.6889 28.2817 12.4686 28.2154 12.2463 28.1569C6.92821 26.7584 3.13099 23.5572 1.40113 18.2665C-0.723589 11.7681 1.93251 4.24184 8.48696 1.27659C12.9059 -0.722401 17.3646 -0.363583 21.4162 2.28706C27.0238 5.95559 29.5523 11.3615 29.4789 18.0586C29.4366 21.9183 28.7894 25.6624 27.4275 29.2734C25.8391 33.4847 23.4023 37.1503 20.312 40.3801C16.0337 44.8518 10.9192 48.1253 5.436 50.8623C5.37978 50.8908 5.31291 50.8972 5.16294 50.9375ZM6.38584 47.284C7.85329 46.3974 9.29075 45.5765 10.6803 44.6802C14.2648 42.3679 17.5139 39.6524 20.2085 36.3127C24.537 30.9479 26.6442 24.7811 26.7179 17.8745C26.7718 12.8324 25.0174 8.61597 21.0943 5.45589C17.5995 2.64077 13.6154 1.9812 9.55726 3.86092C3.2118 6.8001 2.15395 14.5379 4.80841 19.2857C7.05999 23.3129 10.5895 25.3772 15.1052 25.7868C15.6362 25.835 15.7846 25.9996 15.7941 26.5343C15.8634 30.4307 14.3691 33.6652 11.7589 36.4465C9.65216 38.6915 7.15096 40.3961 4.4842 41.8771C4.24474 42.0101 4.0133 42.1577 3.77219 42.3019C4.65466 43.9838 5.4973 45.5902 6.38584 47.284Z" fill="#F89117"/>
</g>
</svg>
